<svg width="1000" height="600" xmlns="http://www.w3.org/2000/svg"><defs><linearGradient id="a" gradientTransform="rotate(90)"><stop offset="5%" stop-color="#fff"/><stop offset="95%" stop-color="#fff"/></linearGradient></defs><path fill="#06085d" d="M0 0h1000v600H0z"/><path d="M0 300c16.942 2.976 33.883 5.952 49-2 15.117-7.952 28.408-26.83 43-18 14.592 8.83 30.484 45.37 47 49 16.516 3.63 33.656-25.652 51-42s34.891-19.763 50-25c15.109-5.237 27.78-12.296 43 0 15.22 12.296 32.99 43.945 50 58 17.01 14.055 33.258 10.515 49 3 15.742-7.515 30.977-19.003 46-16s29.833 20.5 46 30 33.69 11.006 51-12c17.31-23.006 34.408-70.523 49-69 14.592 1.523 26.678 52.087 41 72 14.322 19.913 30.88 9.174 48-5s34.802-31.784 51-41c16.198-9.216 30.911-10.037 46 6 15.089 16.037 30.552 48.93 46 51 15.448 2.07 30.88-26.686 48-32s35.93 12.813 52 4 29.404-44.565 46-38c16.596 6.565 36.456 55.447 45 67 8.544 11.553 5.772-14.224 43-40l-40 300H0Z" fill="url(#a)"/></svg>