<svg width="1000" height="600" xmlns="http://www.w3.org/2000/svg"><defs><linearGradient id="a" gradientTransform="rotate(90)"><stop offset="5%" stop-color="#fff"/><stop offset="95%" stop-color="#fff"/></linearGradient></defs><path fill="#fb0202" d="M0 0h1000v600H0z"/><path d="M0 300c24.276-7.87 48.552-15.74 75-8s55.07 31.087 82 35c26.93 3.913 52.172-11.61 76-27 23.828-15.39 46.243-30.646 72-30 25.757.646 54.857 17.195 82 19 27.143 1.805 52.33-11.132 77-13 24.67-1.868 48.823 7.335 75 15s54.38 13.791 79 9c24.62-4.791 45.658-20.5 70-21s51.987 14.212 78 25c26.013 10.788 50.395 17.655 76 10 25.605-7.655 52.432-29.83 82-26 29.568 3.83 61.877 33.666 75 40 13.123 6.334 7.062-10.833 41-28l-40 300H0Z" fill="url(#a)"/></svg>