<svg width="1000" height="600" xmlns="http://www.w3.org/2000/svg"><defs><linearGradient id="a" gradientTransform="rotate(90)"><stop offset="5%" stop-color="#fff"/><stop offset="95%" stop-color="#fff"/></linearGradient></defs><path fill="#118803" d="M0 0h1000v600H0z"/><path d="M0 300c29.468 17.488 58.937 34.976 93 22 34.063-12.976 72.72-56.416 105-48 32.28 8.416 58.18 68.689 94 57 35.82-11.689 81.56-95.34 115-102 33.44-6.66 54.58 63.67 82 79 27.42 15.33 61.118-24.34 99-25 37.882-.66 79.948 37.689 118 51 38.052 13.311 72.091 1.584 104-16 31.909-17.584 61.688-41.024 93-45 31.312-3.976 64.156 11.512 137 27l-40 300H0Z" fill="url(#a)"/></svg>