<svg width="1000" height="600" xmlns="http://www.w3.org/2000/svg"><defs><linearGradient id="a" gradientTransform="rotate(90)"><stop offset="5%" stop-color="#fff"/><stop offset="95%" stop-color="#fff"/></linearGradient></defs><path fill="#b900bb" d="M0 0h1000v600H0z"/><path d="M0 300c24.532-6.413 49.064-12.826 74-7 24.936 5.826 50.276 23.89 77 29 26.724 5.11 54.832-2.733 81-9 26.168-6.267 50.396-10.956 76-19s52.585-19.44 78-11c25.415 8.44 49.263 36.72 75 38 25.737 1.28 53.361-24.437 79-37 25.639-12.563 49.292-11.97 75-2s53.471 29.318 79 28c25.529-1.318 48.824-23.304 74-29 25.176-5.696 52.233 4.896 78 11 25.767 6.104 50.245 7.72 78 14 27.755 6.28 58.787 17.223 72 17 13.213-.223 8.606-11.611 44-23l-40 300H0Z" fill="url(#a)"/></svg>